<?xml version="1.0" encoding="utf-8"?>
<!-- Generator: Adobe Illustrator 26.5.0, SVG Export Plug-In . SVG Version: 6.00 Build 0)  -->
<svg version="1.1" id="amneal-logo" xmlns="http://www.w3.org/2000/svg" xmlns:xlink="http://www.w3.org/1999/xlink" x="0px"
	 y="0px" viewBox="0 0 282.2 118.7" style="enable-background:new 0 0 282.2 118.7;" xml:space="preserve">
<style type="text/css">
	.st0{fill:#D59F6B;}
	.st1{fill:#00558B;}
</style>
<g id="logo-art">
	<path class="st0" d="M89.4,11.8C76.2-5.8,70-6.9,54.3,30.8C64.7,22.9,86.3,12.8,89.4,11.8"/>
	<path class="st0" d="M110,11.5c-17.4,14.3,0,21.4,13.2,36.3c-18.6-7.8-32.6-9.5-46.3-2.4c-33.5,17.3-41.6,52.7-51.8,73.2
		C31,72.9,64.3,40.3,0,71.7C16.5,61.4,70.6,24.8,110,11.5"/>
</g>
<g id="logo-text">
	<path class="st1" d="M279.7,56.2h0.3c0.3,0,0.6-0.1,0.6-0.4s-0.2-0.4-0.6-0.4h-0.3V56.2z M279.7,57.6h-0.4v-2.5
		c0.2,0,0.5-0.1,0.7-0.1c0.3,0,0.5,0,0.8,0.2c0.2,0.1,0.2,0.3,0.2,0.5c0,0.3-0.2,0.5-0.5,0.6l0,0c0.2,0,0.4,0.2,0.4,0.6
		c0,0.2,0.1,0.4,0.2,0.6h-0.4c-0.1-0.2-0.2-0.4-0.2-0.6c0-0.3-0.2-0.4-0.5-0.4c0,0,0,0,0,0h-0.3V57.6z M280.1,54.4
		c-1,0-1.9,0.8-1.9,1.9c0,1,0.8,1.9,1.9,1.9s1.9-0.8,1.9-1.9C281.9,55.3,281.1,54.4,280.1,54.4z M280.1,54.1c1.2,0,2.2,1,2.2,2.2
		c0,1.2-1,2.2-2.2,2.2c-1.2,0-2.2-1-2.2-2.2c0,0,0,0,0,0C277.9,55.1,278.8,54.1,280.1,54.1C280,54.1,280.1,54.1,280.1,54.1z"/>
	<path class="st1" d="M78.4,76c-4.3,0-6.4,1-6.4,3.1c0,1.4,0.4,2.4,1.3,2.8s2.7,0.7,5.6,0.7c4.6,0,6.9-1.1,6.9-3.2
		S83.3,76.1,78.4,76 M73.3,70.2h-7.8c0-2.7,0.9-4.4,2.6-5.3c1.8-0.9,5.3-1.3,10.5-1.3c5.7,0,9.5,0.5,11.6,1.6s3,3.2,3,6.2v14.4h-7.6
		l0.4-3h-0.2c-1.5,2.2-4.8,3.3-10.1,3.3c-7.7,0-11.5-2.3-11.5-6.8s3.9-6.8,11.8-6.9c5.2,0,8.4,0.8,9.5,2.5h0.1v-3.6
		c0-1.7-0.4-2.9-1.3-3.4c-0.9-0.6-2.6-0.8-5.3-0.8C75.2,67.1,73.3,68.2,73.3,70.2"/>
	<path class="st1" d="M102.2,63.8h7.6l-0.2,3.4h0.2c1.5-2.4,4.8-3.7,9.7-3.7c5.7,0,8.9,1.4,9.5,4.1h0.1c1.5-2.7,4.7-4.1,9.8-4.1
		c7.3,0,11,2.6,11,7.7v14.6h-7.6V72.4c0-3.1-1.8-4.7-5.5-4.7c-4.6,0-6.9,1.7-6.9,5.2v12.9h-7.6V72.2c0-1.8-0.3-3-1-3.6
		c-0.7-0.6-2.1-0.9-4.4-0.9c-4.7,0-7,1.8-7,5.4v12.8h-7.6L102.2,63.8z"/>
	<path class="st1" d="M158.9,63.8h7.5l-0.3,3.7h0.2c1.5-2.7,4.8-4,9.9-4c7.5,0,11.2,2.4,11.2,7.3v15h-7.6V71.7l-0.2-1.5
		c-0.4-1.6-2.2-2.5-5.6-2.5c-5.1,0-7.6,1.7-7.6,5v13.1h-7.6V63.8z"/>
	<path class="st1" d="M216.7,72.6v-0.9c0-1.8-0.4-2.9-1.3-3.4c-0.9-0.5-2.8-0.8-5.7-0.8c-2.8,0-4.7,0.3-5.5,0.9s-1.3,2-1.3,4.1
		H216.7z M216.6,78.8h7.6v0.9c0,4.3-4.6,6.5-13.9,6.5c-6.3,0-10.4-0.7-12.4-2.2c-1.9-1.5-2.9-4.6-2.9-9.5c0-4.3,1-7.2,3-8.6
		c2-1.5,6-2.2,12-2.2c5.6,0,9.4,0.7,11.4,2.1c1.9,1.4,2.9,4.3,2.9,8.5v1.6h-21.4c0,0.5-0.1,0.8-0.1,1c0,2.2,0.5,3.6,1.4,4.3
		c1,0.7,2.9,1.1,5.7,1.1c2.8,0,4.6-0.2,5.4-0.6C216.2,81.1,216.6,80.2,216.6,78.8"/>
	<path class="st1" d="M244.8,76c-4.3,0-6.4,1-6.4,3.1c0,1.4,0.4,2.4,1.3,2.8s2.7,0.7,5.6,0.7c4.6,0,6.9-1.1,6.9-3.2
		C252.2,77.2,249.7,76.1,244.8,76 M239.8,70.2H232c0-2.7,0.9-4.4,2.6-5.3c1.8-0.9,5.3-1.3,10.5-1.3c5.7,0,9.5,0.5,11.5,1.6
		s3,3.2,3,6.2v14.4h-7.6l0.4-3h-0.2c-1.5,2.2-4.8,3.3-10.1,3.3c-7.7,0-11.5-2.3-11.5-6.8s3.9-6.8,11.8-6.9c5.2,0,8.4,0.8,9.5,2.5
		h0.1v-3.6c0-1.7-0.4-2.9-1.3-3.4c-0.9-0.6-2.6-0.8-5.3-0.8C241.6,67.2,239.7,68.2,239.8,70.2"/>
	<rect x="268.6" y="54.4" class="st1" width="7.6" height="31.5"/>
</g>
</svg>
